<svg xmlns="http://www.w3.org/2000/svg" viewBox="0 0 1280 710" role="img" aria-labelledby="title desc">
  <title id="title">ModelForge console illustration</title>
  <desc id="desc">Example workspace overview showing model inventory, canary routing, serving health, and a separate Go runtime.</desc>
  <defs>
    <linearGradient id="hero" x1="0" y1="0" x2="1" y2="1">
      <stop stop-color="#273e70"/>
      <stop offset="1" stop-color="#183b46"/>
    </linearGradient>
    <linearGradient id="mark" x1="0" y1="0" x2="1" y2="1">
      <stop stop-color="#8aa5ff"/>
      <stop offset="1" stop-color="#6ee0c5"/>
    </linearGradient>
  </defs>
  <rect width="1280" height="710" rx="20" fill="#080d16"/>
  <rect x="1" y="1" width="1278" height="708" rx="19" fill="none" stroke="#7486a8" stroke-opacity=".4"/>
  <path d="M20 0H245V710H20Q0 710 0 690V20Q0 0 20 0Z" fill="#0d1421"/>
  <path d="M245 0V710" stroke="#253347"/>
  <g font-family="Arial, Helvetica, sans-serif">
    <rect x="29" y="29" width="39" height="39" rx="11" fill="url(#mark)"/>
    <text x="48.5" y="57" text-anchor="middle" font-size="24" font-weight="800" fill="#0a1525">M</text>
    <text x="81" y="56" font-size="23" font-weight="750" fill="#edf2fe">ModelForge</text>
    <text x="30" y="120" font-size="12" font-weight="700" letter-spacing="1.5" fill="#7488a7">WORKSPACE</text>
    <rect x="17" y="139" width="210" height="42" rx="10" fill="#1c2b44"/>
    <text x="35" y="166" font-size="16" font-weight="700" fill="#b2c3ff">◫</text>
    <text x="65" y="166" font-size="15" font-weight="700" fill="#dbe4ff">Overview</text>
    <text x="35" y="216" font-size="16" fill="#8ca0bc">◇</text>
    <text x="65" y="216" font-size="15" fill="#a5b5ce">Models</text>
    <text x="35" y="258" font-size="16" fill="#8ca0bc">↗</text>
    <text x="65" y="258" font-size="15" fill="#a5b5ce">Deployments</text>
    <text x="35" y="300" font-size="16" fill="#8ca0bc">⌁</text>
    <text x="65" y="300" font-size="15" fill="#a5b5ce">Runtimes</text>
    <text x="35" y="342" font-size="16" fill="#8ca0bc">⌘</text>
    <text x="65" y="342" font-size="15" fill="#a5b5ce">API keys</text>
    <text x="35" y="384" font-size="16" fill="#8ca0bc">◎</text>
    <text x="65" y="384" font-size="15" fill="#a5b5ce">Inference</text>
    <path d="M26 613H217" stroke="#27364b"/>
    <circle cx="37" cy="644" r="5" fill="#6de0bf"/>
    <text x="53" y="649" font-size="13" fill="#a7b7d0">API ready</text>
    <circle cx="37" cy="672" r="5" fill="#6de0bf"/>
    <text x="53" y="677" font-size="13" fill="#a7b7d0">Runtimes healthy</text>
    <path d="M245 77H1280" stroke="#253347"/>
    <text x="279" y="48" font-size="15" font-weight="700" fill="#d4def0">sample-workspace ▾</text>
    <text x="912" y="48" font-size="12" font-weight="700" fill="#8ee1d0">ILLUSTRATIVE DATA</text>
    <text x="1116" y="48" font-size="14" fill="#c5d3ed">Docs · Account</text>
    <text x="279" y="121" font-size="12" font-weight="700" letter-spacing="1.4" fill="#8ba7ef">CONTROL PLANE</text>
    <text x="279" y="163" font-size="30" font-weight="750" fill="#f2f5ff">Production overview</text>
    <rect x="279" y="190" width="967" height="114" rx="15" fill="url(#hero)" stroke="#8eacd1" stroke-opacity=".3"/>
    <text x="302" y="228" font-size="21" font-weight="750" fill="#fff">Deploy, observe, and roll back.</text>
    <text x="302" y="256" font-size="15" fill="#becfe5">One release view across versions, traffic, and runtime health.</text>
    <rect x="1045" y="224" width="166" height="34" rx="17" fill="#1b4a4b" stroke="#75dbc5" stroke-opacity=".65"/>
    <circle cx="1064" cy="241" r="5" fill="#71e4c8"/>
    <text x="1077" y="246" font-size="13" font-weight="700" fill="#a3efdc">Readiness  READY</text>
    <g>
      <rect x="279" y="328" width="222" height="78" rx="12" fill="#111c2d" stroke="#627ba4" stroke-opacity=".3"/>
      <rect x="515" y="328" width="222" height="78" rx="12" fill="#111c2d" stroke="#627ba4" stroke-opacity=".3"/>
      <rect x="751" y="328" width="222" height="78" rx="12" fill="#111c2d" stroke="#627ba4" stroke-opacity=".3"/>
      <rect x="987" y="328" width="259" height="78" rx="12" fill="#111c2d" stroke="#627ba4" stroke-opacity=".3"/>
      <text x="298" y="354" font-size="12" font-weight="700" fill="#92a5c0">MODELS</text>
      <text x="298" y="389" font-size="27" font-weight="750" fill="#f0f5ff">3</text>
      <text x="534" y="354" font-size="12" font-weight="700" fill="#92a5c0">VERSIONS</text>
      <text x="534" y="389" font-size="27" font-weight="750" fill="#f0f5ff">8</text>
      <text x="770" y="354" font-size="12" font-weight="700" fill="#92a5c0">CANARIES</text>
      <text x="770" y="389" font-size="27" font-weight="750" fill="#a8baff">1</text>
      <text x="1006" y="354" font-size="12" font-weight="700" fill="#92a5c0">RUNTIMES</text>
      <text x="1006" y="389" font-size="27" font-weight="750" fill="#78e0c7">3 healthy</text>
    </g>
    <rect x="279" y="427" width="568" height="243" rx="14" fill="#111a29" stroke="#697e9e" stroke-opacity=".35"/>
    <text x="300" y="459" font-size="17" font-weight="750" fill="#eff4fc">Serving targets</text>
    <text x="300" y="488" font-size="12" font-weight="700" fill="#7c8fa9">ENVIRONMENT</text>
    <text x="473" y="488" font-size="12" font-weight="700" fill="#7c8fa9">STABLE</text>
    <text x="648" y="488" font-size="12" font-weight="700" fill="#7c8fa9">CANARY</text>
    <path d="M299 500H828" stroke="#2b3a50"/>
    <text x="300" y="535" font-size="15" fill="#dbe6fa">production</text>
    <text x="473" y="535" font-size="15" fill="#a7ecdb">v1.0.0 · 90%</text>
    <text x="648" y="535" font-size="15" fill="#b4c2ff">v2.0.0 · 10%</text>
    <rect x="301" y="566" width="523" height="12" rx="6" fill="#314264"/>
    <rect x="301" y="566" width="471" height="12" rx="6" fill="#71d9bd"/>
    <text x="300" y="609" font-size="13" fill="#889cba">Weighted traffic · candidate rollout in progress</text>
    <text x="300" y="643" font-size="13" fill="#afc0dc">Promote  ·  Reweight  ·  Abort  ·  Roll back</text>
    <rect x="865" y="427" width="381" height="243" rx="14" fill="#111a29" stroke="#697e9e" stroke-opacity=".35"/>
    <text x="886" y="459" font-size="17" font-weight="750" fill="#eff4fc">Runtime fleet</text>
    <path d="M885 493H1226M885 540H1226M885 587H1226" stroke="#29374b"/>
    <text x="886" y="481" font-size="12" font-weight="700" fill="#7c8fa9">FRAMEWORK</text>
    <text x="1118" y="481" font-size="12" font-weight="700" fill="#7c8fa9">STATUS</text>
    <text x="886" y="524" font-size="14" fill="#d7e2f5">PyTorch</text>
    <text x="1118" y="524" font-size="14" fill="#8de9d0">Healthy</text>
    <text x="886" y="571" font-size="14" fill="#d7e2f5">ONNX</text>
    <text x="1118" y="571" font-size="14" fill="#8de9d0">Healthy</text>
    <text x="886" y="618" font-size="14" fill="#d7e2f5">Go service</text>
    <text x="1118" y="618" font-size="14" fill="#8de9d0">Healthy</text>
  </g>
</svg>
